<svg width="82" height="82" viewBox="0 0 82 82" fill="none" xmlns="http://www.w3.org/2000/svg">
<circle cx="41" cy="41" r="41" fill="#F7B112"/>
<path d="M44.4095 30.5747C43.599 30.5747 42.837 30.8905 42.2636 31.4639L39.6845 34.043L37.1054 31.4639C36.5132 30.8725 35.7363 30.5763 34.9595 30.5763C34.1818 30.5763 33.405 30.8725 32.8136 31.4639C31.6299 32.6468 31.6299 34.5721 32.8136 35.7558L39.6845 42.6267L46.5554 35.7558C47.7383 34.5721 47.7383 32.6468 46.5554 31.4639C45.982 30.8905 45.22 30.5747 44.4095 30.5747Z" fill="#17134C"/>
<path d="M56.3935 46.4469L60.0398 44.6233L56.3935 36.2807V34.7599C56.3935 26.6207 49.7719 20 41.6336 20H37.5263C35.3443 20 33.2312 20.4421 31.2452 21.315C29.3297 22.1566 27.6268 23.3551 26.1847 24.8776C23.2471 27.9775 21.755 32.0176 21.9838 36.2553C22.2103 40.4611 24.1601 44.3936 27.3585 47.1302L28.2149 62L47.9722 61.9762L48.8245 57.0913H55.9645L58.2827 51.8511L56.3935 50.0841V46.4469ZM48.2946 37.4956L39.6837 46.1073L31.0721 37.4956C28.9294 35.353 28.9294 31.8666 31.0721 29.724C33.2147 27.5805 36.7019 27.5805 38.8445 29.724L39.6837 30.5623L40.5221 29.724C41.5606 28.6855 42.9404 28.1137 44.4087 28.1137C45.8763 28.1137 47.2569 28.6855 48.2946 29.724C50.4372 31.8666 50.4372 35.353 48.2946 37.4956Z" fill="#17134C"/>
</svg>
