<svg width="82" height="82" viewBox="0 0 82 82" fill="none" xmlns="http://www.w3.org/2000/svg">
<circle cx="41" cy="41" r="41" fill="#F7B112"/>
<path d="M40.9992 20C35.9706 20 31.8809 24.0915 31.8809 29.121C31.8809 34.1523 35.9715 38.2446 40.9992 38.2446C46.027 38.2446 50.1185 34.1523 50.1185 29.121C50.1185 24.0915 46.027 20 40.9992 20Z" fill="#17134C"/>
<path d="M48.0457 40.8189C48.3703 42.2232 48.883 44.7765 48.7124 46.257C50.0538 47.4461 53.573 50.9514 52.8074 54.4102C52.8022 54.4514 52.4399 56.4402 49.9724 57.2846C49.8788 57.317 49.7825 57.3327 49.6889 57.3327C49.3249 57.3327 48.9863 57.1035 48.862 56.7395C48.7045 56.2819 48.9495 55.784 49.4072 55.6282C50.8754 55.126 51.0889 54.0847 51.0924 54.0751C51.6157 51.703 48.9907 48.8234 47.5312 47.5432C45.7847 48.3911 42.4824 50.471 42.3547 52.8527C42.3494 52.9262 42.2952 53.9806 43.5578 54.8399C43.9577 55.112 44.0618 55.6571 43.7888 56.057C43.6199 56.3046 43.3443 56.4402 43.066 56.4402C42.8954 56.4402 42.7239 56.3904 42.5734 56.288C40.4148 54.8197 40.6012 52.8002 40.609 52.7145C40.8077 49.0176 45.6394 46.4985 46.9878 45.865C47.0683 44.5525 46.5232 41.8417 46.1215 40.3105C46.1093 40.2624 46.118 40.216 46.1128 40.1679C44.8397 39.8214 43.5053 39.6201 42.1219 39.6201H39.8758C38.327 39.6201 36.8325 39.8564 35.4229 40.2877C35.408 40.3499 35.4045 40.4146 35.3739 40.475C35.3547 40.5144 33.4603 44.4466 32.5547 50.4605C34.0763 50.8805 35.2033 52.2621 35.2033 53.9141C35.2033 55.8969 33.5898 57.5095 31.6079 57.5095C29.6243 57.5095 28.0108 55.896 28.0108 53.9141C28.0108 52.214 29.2017 50.7921 30.7915 50.4211C31.4067 46.1844 32.4794 42.9582 33.1654 41.1977C28.1184 43.6862 24.6289 48.8724 24.6289 54.8714V61.125C24.6289 61.6089 25.02 62 25.5039 62H56.4982C56.982 62 57.3732 61.5966 57.3732 61.1127V54.8714C57.3714 48.5626 53.5214 43.1359 48.0457 40.8189Z" fill="#17134C"/>
</svg>
