<svg width="82" height="82" viewBox="0 0 82 82" fill="none" xmlns="http://www.w3.org/2000/svg">
<circle cx="41" cy="41" r="41" fill="#F7B112"/>
<path d="M58.9246 47.5625C59.2332 47.3355 59.4765 47.0312 59.6299 46.6802C59.7834 46.3292 59.8415 45.9439 59.7984 45.5632C59.7554 45.1826 59.6127 44.82 59.3848 44.5121C59.1569 44.2042 58.8517 43.9619 58.5002 43.8096V40.8162L56.7502 41.56V43.8096C56.3985 43.9618 56.0932 44.2042 55.8652 44.5121C55.6371 44.8201 55.4943 45.1828 55.4513 45.5636C55.4082 45.9444 55.4664 46.3298 55.62 46.6809C55.7735 47.0321 56.017 47.3364 56.3259 47.5633C56.0512 47.7652 55.8277 48.0286 55.6734 48.3326C55.5192 48.6366 55.4384 48.9725 55.4377 49.3133V51.5C55.4377 51.732 55.5299 51.9546 55.694 52.1187C55.8581 52.2828 56.0807 52.375 56.3127 52.375H58.9377C59.1698 52.375 59.3924 52.2828 59.5565 52.1187C59.7206 51.9546 59.8127 51.732 59.8127 51.5V49.3125C59.812 48.9716 59.7313 48.6357 59.5771 48.3317C59.4228 48.0278 59.1993 47.7643 58.9246 47.5625Z" fill="#17134C"/>
<path d="M54.1251 42.6713V49.1463C54.1298 49.899 53.9387 50.64 53.5705 51.2966C53.2024 51.9531 52.6698 52.5027 52.0251 52.8913C48.6794 54.8452 44.8746 55.875 41.0001 55.875C37.1256 55.875 33.3207 54.8452 29.9751 52.8913C29.3304 52.5027 28.7978 51.9531 28.4296 51.2966C28.0615 50.64 27.8704 49.899 27.8751 49.1463V42.6713L38.6113 47.2125C39.3677 47.5302 40.1798 47.6938 41.0001 47.6938C41.8204 47.6938 42.6325 47.5302 43.3888 47.2125L54.1251 42.6713Z" fill="#17134C"/>
<path d="M60.2822 33.3324L42.7052 25.8949C42.165 25.6676 41.5849 25.5506 40.9989 25.5506C40.4129 25.5506 39.8328 25.6676 39.2927 25.8949L21.7157 33.3324C21.2406 33.5333 20.8352 33.8698 20.5503 34.2998C20.2653 34.7297 20.1133 35.2341 20.1133 35.75C20.1133 36.2658 20.2653 36.7702 20.5503 37.2002C20.8352 37.6302 21.2406 37.9667 21.7157 38.1676L39.2927 45.6051C39.8328 45.8326 40.4129 45.9498 40.9989 45.9498C41.585 45.9498 42.1651 45.8326 42.7052 45.6051L60.2822 38.1676C60.7573 37.9667 61.1626 37.6302 61.4476 37.2002C61.7326 36.7702 61.8846 36.2658 61.8846 35.75C61.8846 35.2341 61.7326 34.7297 61.4476 34.2998C61.1626 33.8698 60.7573 33.5333 60.2822 33.3324Z" fill="#17134C"/>
</svg>
