<svg width="110" height="110" viewBox="0 0 110 110" fill="none" xmlns="http://www.w3.org/2000/svg">
<g id="Frame">
<g id="Group 1000006281">
<g id="Group 1000006280">
<g id="Group">
<g id="Group_2">
<path id="Vector" d="M33.0406 71.1518C33.0406 71.1518 29.5128 67.1248 28.2038 64.1036C26.8948 61.0824 25.4816 56.653 23.7698 56.3513C22.058 56.0495 24.2733 64.1036 27.0962 69.1365L33.0406 71.1518Z" fill="#EAEAF0"/>
<path id="Vector_2" d="M23.6679 66.823L21.4492 56.2506C21.4492 56.2506 20.6853 52.782 17.7652 51.4293C17.4006 51.2593 16.9978 51.5854 17.0638 51.9808L19.1298 63.9024L23.6679 66.823Z" fill="#EAEAF0"/>
<g id="Group_3">
<path id="Vector_3" d="M40.6409 94.2492H54.4638L52.5402 87.2599C52.5402 87.2599 49.818 77.142 42.8666 74.2735C35.9118 71.4049 28.0507 70.6488 25.0299 67.7802C22.0056 64.9117 20.4952 62.3449 17.4709 61.8906C14.4466 61.4362 17.773 67.4785 19.7382 71.4049L23.8181 82.4282C23.8181 82.4282 31.6792 84.0896 35.4569 85.1476C38.6236 86.032 40.4083 89.7747 40.6409 94.2492Z" fill="#EAEAF0"/>
<g id="Group_4">
<g id="Group_5">
<g id="Group_6">
<path id="Vector_4" d="M26.0898 68.5364C26.26 68.852 26.3989 69.0532 26.6975 69.3446C26.7496 69.3931 26.8329 69.4729 27.01 69.6359C27.2461 69.8544 27.6593 70.2048 28.0239 70.4927C28.385 70.7806 28.694 71.0026 28.694 71.0026C28.694 71.0026 28.9509 71.1899 29.2877 71.4223C29.6246 71.6512 30.0412 71.9183 30.3468 72.0986C30.6211 72.2651 30.7947 72.3553 30.885 72.4108C31.2495 72.6189 31.4891 72.6779 31.8329 72.7646C31.5655 72.5218 31.3745 72.3831 31.0169 72.1749C30.9301 72.1229 30.7565 72.0327 30.4857 71.8662C30.1871 71.6859 29.7739 71.4223 29.4405 71.1968C29.1107 70.9679 28.8537 70.7806 28.8537 70.7806C28.8537 70.7806 28.5482 70.562 28.1905 70.2741C27.8329 69.9897 27.4266 69.6429 27.1905 69.4278C27.0169 69.2683 26.9336 69.1919 26.8815 69.1434C26.5829 68.8624 26.3885 68.7341 26.0898 68.5364Z" fill="#EAEAF0"/>
</g>
</g>
</g>
<path id="Vector_5" d="M20.1408 72.2617L11.4811 67.3051C10.8457 66.9409 10.3179 66.424 9.93943 65.7962C8.73804 63.7983 6.53666 58.9735 2.00195 59.2753L7.82832 71.2836C8.17207 71.9877 8.69985 72.5878 9.3561 73.0144L23.8213 82.4282L20.1408 72.2617Z" fill="#EAEAF0"/>
<path id="Vector_6" d="M14.3969 69.2406L10.8691 53.9371C10.8691 53.9371 12.7823 52.5288 15.0011 57.0588C17.2198 61.5888 21.0462 72.8653 21.0462 72.8653L14.3969 69.2406Z" fill="#EAEAF0"/>
<g id="Group_7">
<g id="Group_8">
<g id="Group_9">
<path id="Vector_7" d="M16.8188 61.7903C16.4681 61.8284 16.1834 62.0192 16.0375 62.4597C16.0271 62.5187 15.9959 62.6123 15.9889 62.7233C15.9855 62.7788 15.982 62.8413 15.9785 62.9072C15.9889 63.0216 15.9889 63.1708 16.0202 63.3061C16.1174 63.868 16.4195 64.4576 16.7146 64.9918C17.0063 65.5225 17.2598 66.0463 17.4473 66.4278C17.6313 66.8163 17.7493 67.066 17.7493 67.066C17.7493 67.066 18.0236 67.6661 18.3709 68.4327C18.7146 69.2027 19.1174 70.1427 19.3986 70.8191C19.5202 71.1104 19.5966 71.2943 19.6382 71.3879C19.7979 71.7695 19.9299 71.9706 20.1417 72.262C20.0931 71.9082 20.0445 71.6723 19.8882 71.2839C19.85 71.1902 19.7736 71.0064 19.6521 70.7115C19.3709 70.0352 18.9646 69.0917 18.6209 68.3217C18.2702 67.5516 17.9959 66.9516 17.9959 66.9516C17.9959 66.9516 17.8778 66.7018 17.6938 66.3133C17.5063 65.9249 17.2493 65.4011 16.9542 64.8635C16.6591 64.3293 16.3813 63.7709 16.291 63.261C16.2598 63.1396 16.2632 63.0078 16.2528 62.9072C16.2563 62.8517 16.2598 62.7996 16.2632 62.7511C16.2667 62.654 16.2945 62.5846 16.3014 62.5326C16.4125 62.1892 16.5271 61.9949 16.8188 61.7903Z" fill="#EAEAF0"/>
</g>
</g>
</g>
<g id="Group_10">
<g id="Group_11">
<g id="Group_12">
<path id="Vector_8" d="M23.3691 66.1193C23.2302 65.7897 23.1157 65.5712 22.8448 65.2521C22.7997 65.2001 22.7233 65.1099 22.5601 64.933C22.4143 64.77 22.1573 64.4994 21.9282 64.2809C21.7025 64.0589 21.5045 63.8855 21.5045 63.8855C21.5045 63.8855 21.3379 63.7433 21.1261 63.5594C20.9073 63.3825 20.6365 63.1779 20.4316 63.0426C20.1643 62.8588 19.9872 62.7651 19.9004 62.7061C19.7129 62.6056 19.5601 62.5397 19.4108 62.4876C19.258 62.446 19.1087 62.4183 18.9316 62.3905C19.0775 62.498 19.1955 62.5847 19.324 62.6645C19.449 62.7547 19.5844 62.838 19.765 62.9351C19.8483 62.9906 20.0184 63.0842 20.2789 63.2611C20.4768 63.3929 20.7407 63.5941 20.9525 63.7641C21.1608 63.941 21.324 64.0797 21.324 64.0797C21.324 64.0797 21.515 64.2497 21.7372 64.4682C21.9594 64.6833 22.2129 64.9469 22.3587 65.1099C22.515 65.2868 22.5914 65.37 22.6365 65.4221C22.9108 65.7412 23.0913 65.8938 23.3691 66.1193Z" fill="#EAEAF0"/>
</g>
</g>
</g>
<g id="Group_13">
<g id="Group_14">
<g id="Group_15">
<path id="Vector_9" d="M32.6354 70.8502C32.316 70.6872 32.1007 70.5866 31.6979 70.4825C31.6285 70.4652 31.5173 70.4374 31.2882 70.375C30.8715 70.2675 29.8993 69.9935 29.8993 69.9935C29.8993 69.9935 29.0868 69.7541 28.6424 69.6015C28.3437 69.5009 28.1597 69.435 28.0625 69.3969C27.6736 69.2547 27.4479 69.2061 27.0938 69.1367C27.3715 69.3622 27.5764 69.5044 27.9687 69.6501C28.066 69.6882 28.2535 69.7541 28.5556 69.8582C29.0035 70.0108 29.8229 70.2501 29.8229 70.2501C29.8229 70.2501 30.8021 70.5311 31.2187 70.6352C31.4514 70.6941 31.5625 70.7219 31.6285 70.7392C32.0382 70.8433 32.2778 70.8571 32.6354 70.8502Z" fill="#EAEAF0"/>
</g>
</g>
</g>
</g>
<g id="Group_16">
<g id="Group_17">
<g id="Group_18">
<path id="Vector_10" d="M14.3926 69.2407C14.6634 69.4766 14.8509 69.6257 15.219 69.82C15.2815 69.8512 15.3822 69.9067 15.594 70.0142C16.0488 70.2501 17.1322 70.8085 17.1322 70.8085C17.1322 70.8085 18.0384 71.2768 18.5384 71.5369C18.8196 71.6826 18.9967 71.7728 19.087 71.8179C19.4585 72.0052 19.6877 72.0746 20.0384 72.1578C19.7676 71.922 19.5801 71.7728 19.212 71.5786C19.1217 71.53 18.9446 71.4398 18.6634 71.2941C18.1599 71.034 17.2572 70.5692 17.2572 70.5692C17.2572 70.5692 16.1773 70.0108 15.719 69.7749C15.5072 69.6674 15.4065 69.6153 15.3405 69.5806C14.9724 69.3899 14.7398 69.324 14.3926 69.2407Z" fill="#EAEAF0"/>
</g>
</g>
</g>
<g id="Group_19">
<g id="Group_20">
<g id="Group_21">
<path id="Vector_11" d="M27.6028 78.0476C27.3112 77.8326 27.1133 77.7112 26.7383 77.5412C26.6758 77.51 26.5751 77.458 26.3633 77.3539C25.9049 77.1423 25.1827 76.7018 24.5855 76.296C23.9952 75.8763 23.5369 75.4947 23.5369 75.4947C23.5369 75.4947 23.4362 75.4184 23.2834 75.2832C23.1306 75.1444 22.9119 74.964 22.6827 74.7421C22.2105 74.3119 21.6792 73.7431 21.3147 73.3269C21.1063 73.091 20.9848 72.9384 20.9188 72.8586C20.6584 72.5395 20.4779 72.3834 20.207 72.151C20.3355 72.484 20.4466 72.7025 20.707 73.032C20.773 73.1118 20.898 73.2679 21.1098 73.5072C21.4813 73.9304 22.0195 74.5062 22.4987 74.9432C22.7313 75.1652 22.957 75.3491 23.1098 75.4913C23.266 75.63 23.3667 75.7063 23.3667 75.7063C23.3667 75.7063 23.832 76.0948 24.4327 76.5214C25.0403 76.9342 25.7765 77.3851 26.2452 77.6002C26.4605 77.7077 26.5646 77.7563 26.6306 77.7875C27.0091 77.9574 27.2521 77.9956 27.6028 78.0476Z" fill="#EAEAF0"/>
</g>
</g>
</g>
</g>
<g id="Group_22">
<path id="Vector_12" d="M76.7188 71.4535C76.7188 71.4535 80.4861 67.1246 81.7986 64.1035C83.1076 61.0823 84.5208 56.6529 86.2326 56.3511C87.9444 56.0494 85.7291 64.1035 82.9062 69.1364L76.7188 71.4535Z" fill="#EAEAF0"/>
<path id="Vector_13" d="M86.334 66.8228L88.5527 56.2505C88.5527 56.2505 89.3166 52.7819 92.2367 51.4292C92.6013 51.2592 93.0041 51.5852 92.9381 51.9807L90.8722 63.9023L86.334 66.8228Z" fill="#EAEAF0"/>
<path id="Vector_14" d="M95.6083 69.2406L99.136 53.9371C99.136 53.9371 97.2228 52.5288 95.0041 57.0588C92.7854 61.5888 88.959 72.8653 88.959 72.8653L95.6083 69.2406Z" fill="#EAEAF0"/>
<g id="Group_23">
<path id="Vector_15" d="M69.3635 94.2492C69.5961 89.7747 71.3808 86.0321 74.544 85.1476C78.3218 84.0896 86.1828 82.4282 86.1828 82.4282L90.2627 71.405C92.228 67.4785 95.5543 61.4397 92.53 61.8906C89.5058 62.345 87.9953 64.9117 84.971 67.7803C81.9467 70.6488 74.0857 71.405 67.1343 74.2735C60.1795 77.142 57.4607 87.26 57.4607 87.26L55.5371 94.2492H69.3635Z" fill="#EAEAF0"/>
<g id="Group_24">
<g id="Group_25">
<g id="Group_26">
<path id="Vector_16" d="M82.4043 78.0473C82.755 77.9918 82.998 77.9537 83.3835 77.7768C83.446 77.7456 83.5501 77.6901 83.7654 77.5825C84.2897 77.3328 85.1126 76.8021 85.7758 76.3061C86.1022 76.0529 86.4043 75.8205 86.6057 75.6367C86.814 75.4563 86.9425 75.3453 86.9425 75.3453C86.9425 75.3453 87.0501 75.2482 87.2203 75.0886C87.3939 74.9291 87.63 74.7071 87.8869 74.4469C88.4043 73.9301 88.998 73.2711 89.3973 72.7751C89.5952 72.5253 89.7202 72.3692 89.7862 72.2895C90.0397 71.9565 90.1439 71.7379 90.2689 71.4015C90.0015 71.6374 89.8244 71.7969 89.5709 72.123C89.5084 72.2027 89.3834 72.3554 89.1855 72.6016C88.7932 73.0907 88.2029 73.7428 87.6925 74.2527C87.4425 74.5128 87.2064 74.7314 87.0362 74.8874C86.8661 75.047 86.7619 75.1407 86.7619 75.1407C86.7619 75.1407 86.6334 75.2516 86.4286 75.4251C86.2272 75.6054 85.9321 75.8344 85.6091 76.0841C84.9564 76.5732 84.1508 77.0935 83.6369 77.3363C83.4286 77.4438 83.3279 77.4958 83.2654 77.527C82.8939 77.7074 82.696 77.8323 82.4043 78.0473Z" fill="#EAEAF0"/>
</g>
</g>
</g>
<g id="Group_27">
<g id="Group_28">
<g id="Group_29">
<path id="Vector_17" d="M83.5186 68.8557C83.227 69.0604 83.0325 69.1922 82.7305 69.4766C82.6784 69.5252 82.595 69.6015 82.4214 69.761C82.2131 69.9449 81.8589 70.2536 81.5395 70.4929C81.2235 70.7392 80.9562 70.9299 80.9562 70.9299C80.9562 70.9299 80.7305 71.086 80.4388 71.2872C80.1437 71.4815 79.7825 71.7138 79.5152 71.8665C79.2444 72.0295 79.0707 72.1197 78.9839 72.1717C78.6263 72.3798 78.4353 72.5186 78.168 72.7579C78.5117 72.6712 78.7513 72.6122 79.1159 72.4076C79.2062 72.3555 79.3832 72.2654 79.6541 72.0989C79.9214 71.9428 80.2895 71.7069 80.5881 71.5092C80.8832 71.3046 81.1124 71.145 81.1124 71.145C81.1124 71.145 81.3867 70.9508 81.7062 70.701C82.0291 70.4547 82.3902 70.1426 82.602 69.9553C82.7791 69.7922 82.8624 69.7125 82.9145 69.6639C83.22 69.3795 83.3555 69.1748 83.5186 68.8557Z" fill="#EAEAF0"/>
</g>
</g>
</g>
<path id="Vector_18" d="M89.8622 72.2617L98.5219 67.3051C99.1573 66.9409 99.6851 66.424 100.064 65.7962C101.265 63.7983 103.466 58.9735 108.001 59.2753L102.175 71.2836C101.831 71.9877 101.303 72.5878 100.647 73.0144L86.1816 82.4282L89.8622 72.2617Z" fill="#EAEAF0"/>
<g id="Group_30">
<g id="Group_31">
<g id="Group_32">
<path id="Vector_19" d="M93.1964 61.7902C93.4881 61.9948 93.5992 62.1891 93.7172 62.5324C93.7242 62.5845 93.7519 62.6538 93.7554 62.751C93.7589 62.7995 93.7624 62.8516 93.7658 62.9071C93.7554 63.0076 93.7589 63.136 93.7276 63.2608C93.6374 63.7707 93.3561 64.3292 93.0644 64.8633C92.7693 65.401 92.5158 65.9247 92.3249 66.3132C92.1408 66.7017 92.0228 66.9514 92.0228 66.9514C92.0228 66.9514 91.7485 67.5515 91.3978 68.3215C91.054 69.0916 90.6478 70.035 90.3665 70.7114C90.245 71.0062 90.1686 71.1866 90.1304 71.2837C89.9742 71.6688 89.9256 71.9046 89.877 72.2619C90.0853 71.9705 90.2207 71.7728 90.3804 71.3878C90.4186 71.2941 90.495 71.1103 90.62 70.8189C90.9013 70.146 91.3075 69.2026 91.6478 68.4325C91.995 67.666 92.2693 67.0659 92.2693 67.0659C92.2693 67.0659 92.3874 66.8162 92.5714 66.4277C92.7589 66.0427 93.0124 65.5224 93.304 64.9917C93.5957 64.461 93.8978 63.8679 93.9985 63.3059C94.0332 63.1707 94.0297 63.0215 94.0401 62.9071C94.0367 62.8411 94.0332 62.7787 94.0297 62.7232C94.0228 62.6088 93.9915 62.5186 93.9811 62.4596C93.8318 62.0191 93.5471 61.8283 93.1964 61.7902Z" fill="#EAEAF0"/>
</g>
</g>
</g>
<g id="Group_33">
<g id="Group_34">
<g id="Group_35">
<path id="Vector_20" d="M86.6348 66.1188C86.9125 65.8899 87.0931 65.7407 87.3639 65.4285C87.4091 65.3765 87.4855 65.2898 87.6417 65.1164C87.7875 64.9533 88.0375 64.6932 88.2632 64.4747C88.4855 64.2596 88.6764 64.0862 88.6764 64.0862C88.6764 64.0862 88.8396 63.9474 89.048 63.7705C89.2632 63.6006 89.5271 63.3994 89.7216 63.2676C89.9785 63.0907 90.1486 62.997 90.2354 62.9415C90.416 62.8444 90.5514 62.7612 90.6764 62.671C90.8049 62.5912 90.9264 62.5045 91.0688 62.397C90.8952 62.4247 90.7459 62.4525 90.5896 62.4941C90.4403 62.5461 90.2875 62.612 90.1 62.7091C90.0132 62.7681 89.8361 62.8618 89.5688 63.0456C89.3639 63.1809 89.0931 63.389 88.8743 63.5624C88.6625 63.7463 88.4959 63.8885 88.4959 63.8885C88.4959 63.8885 88.3014 64.0619 88.0723 64.2839C87.8431 64.5024 87.5862 64.773 87.4403 64.936C87.2771 65.1129 87.2042 65.2031 87.1556 65.2551C86.8882 65.5707 86.7737 65.7893 86.6348 66.1188Z" fill="#EAEAF0"/>
</g>
</g>
</g>
<g id="Group_36">
<g id="Group_37">
<g id="Group_38">
<path id="Vector_21" d="M77.1523 71.1449C77.51 71.131 77.7496 71.1067 78.1489 70.9888C78.2148 70.968 78.326 70.9333 78.5551 70.8639C79.01 70.7252 80.0794 70.3714 80.0794 70.3714C80.0794 70.3714 80.9753 70.0731 81.4648 69.8858C81.7634 69.7748 81.9475 69.7019 82.0447 69.6638C82.4336 69.5077 82.635 69.3655 82.9093 69.14C82.5586 69.2129 82.3294 69.2649 81.944 69.414C81.8502 69.4522 81.6662 69.525 81.3711 69.6326C80.885 69.8164 79.9926 70.1147 79.9926 70.1147C79.9926 70.1147 78.9266 70.465 78.4718 70.6038C78.2461 70.6731 78.135 70.7078 78.069 70.7286C77.6732 70.85 77.4614 70.9645 77.1523 71.1449Z" fill="#EAEAF0"/>
</g>
</g>
</g>
</g>
<g id="Group_39">
<g id="Group_40">
<g id="Group_41">
<path id="Vector_22" d="M95.6107 69.2404C95.2634 69.3305 95.0343 69.3999 94.6662 69.5942C94.6037 69.6288 94.503 69.6809 94.2912 69.7953C93.8503 70.0312 92.8086 70.5931 92.8086 70.5931C92.8086 70.5931 91.9371 71.0614 91.4509 71.3215C91.1697 71.4741 90.9961 71.5643 90.9058 71.6164C90.5412 71.8141 90.3537 71.9667 90.0898 72.2095C90.4371 72.1193 90.6662 72.0499 91.0343 71.8557C91.1246 71.8071 91.2982 71.7135 91.5794 71.5643C92.0621 71.3042 92.9371 70.8359 92.9371 70.8359C92.9371 70.8359 93.9787 70.2775 94.4197 70.0381C94.628 69.9237 94.7287 69.8716 94.7912 69.837C95.1593 69.6323 95.3433 69.4797 95.6107 69.2404Z" fill="#EAEAF0"/>
</g>
</g>
</g>
</g>
</g>
<g id="Group_42">
<g id="Group_43">
<g id="Group_44">
<path id="Vector_23" d="M25.2857 42.3855C25.2857 42.3855 7.67423 25.542 18.3499 27.3405C18.3499 27.3405 13.6698 18.2638 17.182 17.6447C20.6942 17.0255 22.2922 22.3536 22.2922 22.3536C22.2922 22.3536 20.4117 4.15809 28.136 14.6795C28.136 14.6795 31.9475 6.04082 34.0346 14.869C34.0346 14.869 38.6556 7.26649 40.4433 15.2986C40.4433 15.2986 46.1564 12.7841 43.8628 22.1472C43.8628 22.1472 57.7133 20.2308 35.5061 42.9921L25.2857 42.3855Z" fill="#F1F1F1"/>
<path id="Vector_24" d="M25.2852 42.3855C25.2852 42.3855 26.2085 38.4979 28.4474 41.1093C28.4474 41.1093 31.0446 38.3421 32.5414 41.7453C32.5414 41.7453 34.9827 39.395 35.5097 42.992C35.5097 42.992 33.2666 50.9736 29.8936 51.2642C25.9555 51.6012 25.2852 42.3855 25.2852 42.3855Z" fill="#17134C"/>
</g>
</g>
<g id="Group_45">
<path id="Vector_25" d="M55.6054 73.9498C50.2001 73.9498 44.9002 72.2524 40.2454 68.9671C33.8451 64.4519 29.4306 57.4686 27.8157 49.3101C27.6893 48.6699 28.0603 48.0338 28.6464 47.8949C29.2324 47.7559 29.8101 48.1644 29.9365 48.8046C31.4291 56.344 35.5063 62.7924 41.4175 66.9665C47.3288 71.1405 54.37 72.5388 61.2426 70.9004C68.1152 69.2662 73.9927 64.7931 77.7958 58.3025C81.5989 51.8162 82.8723 44.0915 81.3839 36.5521C81.2574 35.9119 81.6284 35.2759 82.2145 35.1369C82.7964 34.9937 83.3782 35.4065 83.5047 36.0467C85.1195 44.2052 83.7408 52.5659 79.6215 59.5872C75.5022 66.6084 69.1397 71.4522 61.7022 73.2212C59.6741 73.7098 57.6292 73.9498 55.6054 73.9498Z" fill="#17134C"/>
</g>
</g>
</g>
<path id="Vector_26" d="M74.4073 35.6256C74.4073 35.6256 74.9934 45.9238 67.7202 49.1417C61.0585 52.0942 54.0215 46.9009 50.7665 44.3696C47.5115 41.834 38.9229 42.1246 36.6334 51.2982C34.344 60.4718 54.8183 77.4922 70.3849 63.7571C85.104 50.7675 74.4073 35.6256 74.4073 35.6256Z" fill="#F7B112"/>
<path id="Vector_27" d="M65.1035 47.6589C68.7268 47.6589 71.6641 44.4381 71.6641 40.465C71.6641 36.4918 68.7268 33.271 65.1035 33.271C61.4802 33.271 58.543 36.4918 58.543 40.465C58.543 44.4381 61.4802 47.6589 65.1035 47.6589Z" fill="#F7B112"/>
</g>
</g>
</svg>
