<svg width="46" height="46" viewBox="0 0 46 46" fill="none" xmlns="http://www.w3.org/2000/svg">
<path fill-rule="evenodd" clip-rule="evenodd" d="M28.3334 26.038V21.4935H26.0412V33.2335C26.0412 37.19 29.2801 40.429 33.2367 40.429C37.1932 40.429 40.4322 37.19 40.4322 33.2335C40.4322 29.277 37.1932 26.038 33.2367 26.038H29.8615V28.3302H33.2367C35.9308 28.3302 38.14 30.5427 38.14 33.2335C38.14 35.9277 35.9275 38.1368 33.2367 38.1368C30.5458 38.1368 28.3334 35.9243 28.3334 33.2335V26.038ZM26.0412 19.962H33.2367C37.1932 19.962 40.4322 16.7231 40.4322 12.7665C40.4322 8.81001 37.1932 5.57104 33.2367 5.57104C29.2801 5.57104 26.0412 8.81001 26.0412 12.7665V16.1417H28.3334V12.7665C28.3334 10.0757 30.5458 7.86324 33.2367 7.86324C35.9275 7.86324 38.14 10.0757 38.14 12.7665C38.14 15.4607 35.9275 17.6698 33.2367 17.6698H21.4933V19.962H26.0379H26.0412ZM19.9652 19.962V12.7665C19.9652 8.81001 16.7262 5.57104 12.7697 5.57104C8.81319 5.57104 5.57422 8.81001 5.57422 12.7665C5.57422 16.7231 8.81319 19.962 12.7697 19.962H16.1449V17.6698H12.7697C10.0756 17.6698 7.86641 15.4574 7.86641 12.7665C7.86641 10.0757 10.0789 7.86324 12.7697 7.86324C15.4605 7.86324 17.673 10.0757 17.673 12.7665V24.5066H19.9652V19.962ZM19.9652 26.038H12.7697C8.81319 26.038 5.57422 29.277 5.57422 33.2335C5.57422 37.19 8.81319 40.429 12.7697 40.429C16.7262 40.429 19.9652 37.19 19.9652 33.2335V29.8616H17.673V33.2335C17.673 35.9277 15.4605 38.1368 12.7697 38.1368C10.0789 38.1368 7.86641 35.9243 7.86641 33.2335C7.86641 30.5427 10.0789 28.3302 12.7697 28.3302H24.5131V26.038H19.9685H19.9652Z" fill="#F7B112"/>
<path fill-rule="evenodd" clip-rule="evenodd" d="M39.2696 39.2629C48.2523 30.2802 48.2523 15.7198 39.2696 6.73706C30.2869 -2.24569 15.7231 -2.24569 6.73706 6.73706C-2.24569 15.7198 -2.24569 30.2835 6.73706 39.2629C15.7198 48.2457 30.2869 48.2457 39.2696 39.2629ZM37.5421 8.46118C45.5715 16.4905 45.5715 29.5062 37.5421 37.5355C29.5128 45.5648 16.4938 45.5648 8.46451 37.5355C0.435184 29.5095 0.435184 16.4905 8.46451 8.46118C16.4938 0.435184 29.5128 0.435184 37.5421 8.46118Z" fill="#F7B112"/>
</svg>
