<svg width="174" height="48" viewBox="0 0 174 48" fill="none" xmlns="http://www.w3.org/2000/svg">
<g clip-path="url(#clip0_60_269)">
<path fill-rule="evenodd" clip-rule="evenodd" d="M29.5933 27.1703V22.4282H27.1992V34.6786C27.1992 38.8072 30.5822 42.187 34.7146 42.187C38.847 42.187 42.23 38.8072 42.23 34.6786C42.23 30.5501 38.847 27.1703 34.7146 27.1703H31.1894V29.5622H34.7146C37.5285 29.5622 39.8359 31.8708 39.8359 34.6786C39.8359 37.4899 37.5251 39.7951 34.7146 39.7951C31.9041 39.7951 29.5933 37.4865 29.5933 34.6786V27.1703ZM27.1992 20.8302H34.7146C38.847 20.8302 42.23 17.4504 42.23 13.3218C42.23 9.19327 38.847 5.81348 34.7146 5.81348C30.5822 5.81348 27.1992 9.19327 27.1992 13.3218V16.8437H29.5933V13.3218C29.5933 10.514 31.9041 8.20533 34.7146 8.20533C37.5251 8.20533 39.8359 10.514 39.8359 13.3218C39.8359 16.1331 37.5251 18.4383 34.7146 18.4383H22.4491V20.8302H27.1957H27.1992ZM20.8531 20.8302V13.3218C20.8531 9.19327 17.4701 5.81348 13.3377 5.81348C9.20524 5.81348 5.82227 9.19327 5.82227 13.3218C5.82227 17.4504 9.20524 20.8302 13.3377 20.8302H16.8629V18.4383H13.3377C10.5237 18.4383 8.21637 16.1296 8.21637 13.3218C8.21637 10.514 10.5272 8.20533 13.3377 8.20533C16.1481 8.20533 18.459 10.514 18.459 13.3218V25.5723H20.8531V20.8302ZM20.8531 27.1703H13.3377C9.20524 27.1703 5.82227 30.5501 5.82227 34.6786C5.82227 38.8072 9.20524 42.187 13.3377 42.187C17.4701 42.187 20.8531 38.8072 20.8531 34.6786V31.1602H18.459V34.6786C18.459 37.4899 16.1481 39.7951 13.3377 39.7951C10.5272 39.7951 8.21637 37.4865 8.21637 34.6786C8.21637 31.8708 10.5272 29.5622 13.3377 29.5622H25.6031V27.1703H20.8565H20.8531Z" fill="#F7B112"/>
<path fill-rule="evenodd" clip-rule="evenodd" d="M41.0155 40.97C50.3976 31.5967 50.3976 16.4033 41.0155 7.02997C31.6334 -2.34332 16.4222 -2.34332 7.03658 7.02997C-2.34553 16.4033 -2.34553 31.6002 7.03658 40.97C16.4187 50.3433 31.6334 50.3433 41.0155 40.97ZM39.2113 8.82906C47.5976 17.2075 47.5976 30.7891 39.2113 39.1675C30.825 47.5459 17.2271 47.5459 8.84084 39.1675C0.454533 30.7925 0.454533 17.2075 8.84084 8.82906C17.2271 0.454105 30.825 0.454105 39.2113 8.82906Z" fill="#F7B112"/>
<path fill-rule="evenodd" clip-rule="evenodd" d="M61.9617 9.85872H65.7264C68.922 9.85872 68.9393 14.5696 65.7264 14.5696H61.9617V9.85872ZM61.8576 40.783V36.0686H68.2523V33.8466H61.8576V30.3697H68.6166V28.0576H59.4531V40.7795H61.8576V40.783ZM82.7314 38.4154H75.57V35.5417H82.4747V33.3024H75.57V30.3524H82.7314V28.0229H73.1863V40.7795H82.7314V38.4119V38.4154ZM98.8517 40.6166L94.9899 36.2662C97.4118 35.7739 98.2133 34.0095 98.2133 32.252C98.2133 30.0404 96.6276 28.0368 93.6229 28.0195C91.6 28.0368 89.5772 28.0195 87.5543 28.0195V40.776H89.9589V36.5158H92.2732L95.9892 40.776H98.8483V40.6131L98.8517 40.6166ZM93.6229 30.2623C95.1357 30.2623 95.8088 31.2849 95.8088 32.311C95.8088 33.337 95.153 34.3596 93.6229 34.3596H89.9623V30.2657H93.6229V30.2623ZM106.645 40.783H109.049V30.2103H113.095V28.0264H102.602V30.2103H106.648V40.783H106.645ZM119.902 28.0264H117.515V40.783H119.902V28.0264ZM125.107 28.0264V40.783H134.069V38.5644H127.512V28.0264H125.107ZM141.116 28.0264H138.729V40.783H141.116V28.0264ZM150.204 40.783H152.608V30.2103H156.654V28.0264H146.158V30.2103H150.204V40.783ZM163.954 28.0264H161.095V28.1373L165.994 35.5174V40.7864H168.399V35.5174L173.482 28.1373V28.0264H170.585L167.195 33.2954L163.951 28.0264H163.954ZM65.7298 7.4634C63.6376 7.44607 61.5454 7.4634 59.4531 7.4634V20.7815H61.9617V16.8679H65.7264C72.2494 16.8679 72.2286 7.4634 65.7264 7.4634M77.8912 7.4634H75.3999V20.7815H77.8912V7.4634ZM92.0719 15.7205L85.5488 7.4634H83.5156V20.7815H86.0242V11.8034L93.0226 20.7815H94.5805V7.4634H92.0719V15.7205ZM108.709 15.7205L102.186 7.4634H100.153V20.7815H102.661V11.8034L109.66 20.7815H111.218V7.4634H108.709V15.7205ZM127.172 20.7781H129.909L123.938 7.45994H121.2L115.229 20.7781H117.949L119.091 18.2718H126.051L127.172 20.7781ZM125.041 15.9354H120.097L122.567 10.2608L125.041 15.9354ZM143.351 17.3809C142.476 18.2545 141.165 18.7294 140.003 18.7294C136.713 18.7294 135.44 16.4311 135.419 14.2265C135.402 12.0045 136.79 9.60914 140.003 9.60914C141.161 9.60914 142.341 10.0078 143.216 10.864L144.888 9.24863C143.517 7.90018 141.807 7.21729 139.999 7.21729C135.187 7.21729 132.924 10.7496 132.942 14.2265C132.959 17.6825 135.051 21.0831 139.999 21.0831C141.921 21.0831 143.687 20.4557 145.058 19.1072L143.347 17.3775L143.351 17.3809ZM149.357 7.4634V20.7815H158.715V18.4659H151.869V7.46687H149.36L149.357 7.4634ZM173.485 18.3099H166.012V15.308H173.218V12.9716H166.012V9.89339H173.485V7.45994H163.52V20.7781H173.485V18.3099Z" fill="white"/>
</g>
<defs>
<clipPath id="clip0_60_269">
<rect width="173.486" height="48" fill="white"/>
</clipPath>
</defs>
</svg>
