<svg width="64" height="64" viewBox="0 0 64 64" fill="none" xmlns="http://www.w3.org/2000/svg">
<circle cx="32" cy="32" r="32" fill="#FEF7E7"/>
<g clip-path="url(#clip0_60_119)">
<path d="M32.0004 16C26.7204 16 22.4004 20.32 22.4004 25.6C22.4004 30.88 32.0004 43.2 32.0004 43.2C32.0004 43.2 41.6004 30.88 41.6004 25.6C41.6004 20.32 37.2804 16 32.0004 16ZM32.0004 28.8C30.2404 28.8 28.8004 27.36 28.8004 25.6C28.8004 23.84 30.2404 22.4 32.0004 22.4C33.7604 22.4 35.2004 23.84 35.2004 25.6C35.2004 27.36 33.7604 28.8 32.0004 28.8Z" fill="#F7B112"/>
<path d="M42.08 33.7601C41.6 34.7201 41.12 35.6801 40.48 36.6401C43.2 37.6001 44.8 38.8801 44.8 40.0001C44.8 41.9201 39.68 44.8001 32 44.8001C24.32 44.8001 19.2 41.9201 19.2 40.0001C19.2 38.8801 20.8 37.6001 23.52 36.4801C22.88 35.5201 22.4 34.5601 21.92 33.6001C18.24 35.2001 16 37.4401 16 40.0001C16 44.4801 22.72 48.0001 31.68 48.0001C39.68 48.0001 48 45.2801 48 40.0001C48 37.4401 45.76 35.2001 42.08 33.7601Z" fill="#F7B112"/>
</g>
<defs>
<clipPath id="clip0_60_119">
<rect width="32" height="32" fill="white" transform="translate(16 16)"/>
</clipPath>
</defs>
</svg>
