<svg width="167" height="46" viewBox="0 0 167 46" fill="none" xmlns="http://www.w3.org/2000/svg">
<g clip-path="url(#clip0_60_142)">
<path fill-rule="evenodd" clip-rule="evenodd" d="M28.3334 26.038V21.4935H26.0412V33.2335C26.0412 37.19 29.2801 40.429 33.2367 40.429C37.1932 40.429 40.4322 37.19 40.4322 33.2335C40.4322 29.277 37.1932 26.038 33.2367 26.038H29.8615V28.3302H33.2367C35.9308 28.3302 38.14 30.5427 38.14 33.2335C38.14 35.9277 35.9275 38.1368 33.2367 38.1368C30.5458 38.1368 28.3334 35.9243 28.3334 33.2335V26.038ZM26.0412 19.962H33.2367C37.1932 19.962 40.4322 16.7231 40.4322 12.7665C40.4322 8.81001 37.1932 5.57104 33.2367 5.57104C29.2801 5.57104 26.0412 8.81001 26.0412 12.7665V16.1417H28.3334V12.7665C28.3334 10.0757 30.5458 7.86324 33.2367 7.86324C35.9275 7.86324 38.14 10.0757 38.14 12.7665C38.14 15.4607 35.9275 17.6698 33.2367 17.6698H21.4933V19.962H26.0379H26.0412ZM19.9652 19.962V12.7665C19.9652 8.81001 16.7262 5.57104 12.7697 5.57104C8.81319 5.57104 5.57422 8.81001 5.57422 12.7665C5.57422 16.7231 8.81319 19.962 12.7697 19.962H16.1449V17.6698H12.7697C10.0756 17.6698 7.86641 15.4574 7.86641 12.7665C7.86641 10.0757 10.0789 7.86324 12.7697 7.86324C15.4605 7.86324 17.673 10.0757 17.673 12.7665V24.5066H19.9652V19.962ZM19.9652 26.038H12.7697C8.81319 26.038 5.57422 29.277 5.57422 33.2335C5.57422 37.19 8.81319 40.429 12.7697 40.429C16.7262 40.429 19.9652 37.19 19.9652 33.2335V29.8616H17.673V33.2335C17.673 35.9277 15.4605 38.1368 12.7697 38.1368C10.0789 38.1368 7.86641 35.9243 7.86641 33.2335C7.86641 30.5427 10.0789 28.3302 12.7697 28.3302H24.5131V26.038H19.9685H19.9652Z" fill="#F7B112"/>
<path fill-rule="evenodd" clip-rule="evenodd" d="M39.2696 39.2629C48.2523 30.2802 48.2523 15.7198 39.2696 6.73706C30.2869 -2.24569 15.7231 -2.24569 6.73706 6.73706C-2.24569 15.7198 -2.24569 30.2835 6.73706 39.2629C15.7198 48.2457 30.2869 48.2457 39.2696 39.2629ZM37.5421 8.46118C45.5715 16.4905 45.5715 29.5062 37.5421 37.5355C29.5128 45.5648 16.4938 45.5648 8.46451 37.5355C0.435184 29.5095 0.435184 16.4905 8.46451 8.46118C16.4938 0.435184 29.5128 0.435184 37.5421 8.46118Z" fill="#F7B112"/>
<path fill-rule="evenodd" clip-rule="evenodd" d="M59.3237 9.44788H62.9281C65.9877 9.44788 66.0043 13.9625 62.9281 13.9625H59.3237V9.44788ZM59.224 39.0836V34.5657H65.3465V32.4363H59.224V29.1043H65.6953V26.8885H56.9219V39.0803H59.224V39.0836ZM79.2093 36.8147H72.3527V34.0607H78.9635V31.9147H72.3527V29.0877H79.2093V26.8553H70.0704V39.0803H79.2093V36.8114V36.8147ZM94.6434 38.9242L90.946 34.755C93.2648 34.2833 94.0321 32.5924 94.0321 30.9081C94.0321 28.7887 92.514 26.8686 89.6371 26.8519C87.7004 26.8686 85.7636 26.8519 83.8269 26.8519V39.077H86.1291V34.9942H88.3448L91.9027 39.077H94.6401V38.9208L94.6434 38.9242ZM89.6371 29.0013C91.0855 29.0013 91.73 29.9813 91.73 30.9646C91.73 31.9479 91.1021 32.9279 89.6371 32.9279H86.1324V29.0046H89.6371V29.0013ZM102.105 39.0836H104.407V28.9515H108.28V26.8586H98.2345V28.9515H102.108V39.0836H102.105ZM114.798 26.8586H112.513V39.0836H114.798V26.8586ZM119.781 26.8586V39.0836H128.362V36.9575H122.083V26.8586H119.781ZM135.109 26.8586H132.823V39.0836H135.109V26.8586ZM143.809 39.0836H146.111V28.9515H149.985V26.8586H139.936V28.9515H143.809V39.0836ZM156.974 26.8586H154.237V26.9649L158.928 34.0375V39.0869H161.23V34.0375L166.097 26.9649V26.8586H163.323L160.077 31.9081L156.971 26.8586H156.974ZM62.9314 7.15237C60.9282 7.13576 58.9251 7.15237 56.9219 7.15237V19.9156H59.3237V16.165H62.9281C69.1735 16.165 69.1535 7.15237 62.9281 7.15237M74.5751 7.15237H72.1899V19.9156H74.5751V7.15237ZM88.1522 15.0654L81.9068 7.15237H79.9601V19.9156H82.3619V11.3115L89.0624 19.9156H90.554V7.15237H88.1522V15.0654ZM104.081 15.0654L97.8359 7.15237H95.8891V19.9156H98.291V11.3115L104.991 19.9156H106.483V7.15237H104.081V15.0654ZM121.758 19.9122H124.379L118.662 7.14905H116.041L110.323 19.9122H112.928L114.021 17.5104H120.685L121.758 19.9122ZM119.718 15.2714H114.984L117.349 9.83324L119.718 15.2714ZM137.248 16.6567C136.411 17.4938 135.155 17.9489 134.043 17.9489C130.893 17.9489 129.674 15.7464 129.654 13.6336C129.638 11.5042 130.966 9.2087 134.043 9.2087C135.152 9.2087 136.282 9.59073 137.119 10.4113L138.72 8.86321C137.408 7.57094 135.77 6.9165 134.039 6.9165C129.432 6.9165 127.266 10.3016 127.282 13.6336C127.299 16.9457 129.302 20.2046 134.039 20.2046C135.88 20.2046 137.571 19.6033 138.883 18.311L137.245 16.6533L137.248 16.6567ZM142.999 7.15237V19.9156H151.958V17.6965H145.404V7.15569H143.002L142.999 7.15237ZM166.1 17.547H158.944V14.6701H165.844V12.4311H158.944V9.4811H166.1V7.14905H156.559V19.9122H166.1V17.547Z" fill="#17134C"/>
</g>
<defs>
<clipPath id="clip0_60_142">
<rect width="166.101" height="46" fill="white"/>
</clipPath>
</defs>
</svg>
