<svg width="100" height="100" viewBox="0 0 100 100" fill="none" xmlns="http://www.w3.org/2000/svg">
<g id="money-bag 1" clip-path="url(#clip0_105_6767)">
<path id="Vector" d="M38.2813 33.1252C37.2856 33.1252 36.2305 33.1252 35.1753 33.242H34.9999C15.7814 35.0585 0 53.3012 0 73.6328C0 97.2465 21.9337 99.9999 38.2813 99.9999C54.512 99.9999 73.4375 97.5395 76.0742 78.1448C78.8277 55.4099 60.7811 33.1252 38.2813 33.1252Z" fill="#DCDCE5"/>
<path id="Vector_2" d="M58.6122 9.72672L52.7528 27.5002H23.8084L17.9491 9.72672C17.5966 8.84781 17.7728 7.85141 18.3 7.09C18.886 6.32858 19.7649 5.85938 20.7025 5.85938H30.0188C31.1906 2.46048 34.4721 0 38.2806 0C42.0892 0 45.3119 2.46048 46.5425 5.85938H55.8588C56.7964 5.85938 57.6753 6.32858 58.2613 7.09C58.7885 7.85141 58.9647 8.84781 58.6122 9.72672Z" fill="#DCDCE5"/>
<circle id="Ellipse 49" cx="39" cy="65" r="20" fill="white"/>
<path id="Vector_3" d="M47.0117 74.5117C47.0117 78.3203 44.61 81.4842 41.2111 82.7148V85.3516C41.2111 86.9926 39.9225 88.2812 38.2814 88.2812C36.6403 88.2812 35.3517 86.9926 35.3517 85.3516V82.7736C31.9528 81.543 29.4336 78.3203 29.4336 74.5117C29.4336 72.8714 30.7809 71.582 32.3633 71.582C34.0044 71.582 35.293 72.8714 35.293 74.5117C35.293 76.0941 36.6403 77.4414 38.2227 77.4414H38.2814C39.9225 77.3827 41.1523 76.0941 41.1523 74.5117C41.1523 72.8714 39.9225 71.6408 38.2814 71.582H38.2227C33.4184 71.582 29.4336 67.5972 29.4336 62.793C29.4336 58.9256 31.9536 55.703 35.3517 54.5311V50.1953C35.3517 48.5542 36.6403 47.2656 38.2814 47.2656C39.9225 47.2656 41.2111 48.5542 41.2111 50.1953V54.5311C44.61 55.7617 47.0117 58.9844 47.0117 62.793C47.0117 64.3753 45.7231 65.7227 44.082 65.7227C42.4997 65.7227 41.1523 64.3753 41.1523 62.793C41.1523 61.1526 39.9225 59.922 38.2814 59.8633H38.2227C36.6403 59.8633 35.293 61.1526 35.293 62.793C35.293 64.3753 36.6403 65.7227 38.2227 65.7227H38.2814C43.1451 65.7814 47.0117 69.6487 47.0117 74.5117Z" fill="#17134C"/>
<path id="Vector_4" d="M94.1406 64.1771H94.0138L93.8958 64.2236L79.2985 69.9858L64.896 64.2248L64.7768 64.1771H64.6484C61.794 64.1771 59.4557 61.8388 59.4557 58.9844C59.4557 56.1299 61.794 53.7917 64.6484 53.7917H94.1406C96.9951 53.7917 99.3333 56.1299 99.3333 58.9844C99.3333 61.8388 96.9951 64.1771 94.1406 64.1771Z" fill="white" stroke="#B2B1C0" stroke-width="1.33333"/>
<path id="Vector_5" d="M100 58.9844C100 62.207 97.3633 64.8438 94.1406 64.8438L79.2969 70.7031V53.125H94.1406C97.3633 53.125 100 55.7617 100 58.9844Z" fill="#B2B1C0"/>
<path id="Vector_6" d="M94.1406 75.8958H94.0138L93.8958 75.9424L79.2985 81.7045L64.896 75.9435L64.7768 75.8958H64.6484C61.794 75.8958 59.4557 73.5576 59.4557 70.7031C59.4557 67.8487 61.794 65.5104 64.6484 65.5104H94.1406C96.9951 65.5104 99.3333 67.8487 99.3333 70.7031C99.3333 73.5576 96.9951 75.8958 94.1406 75.8958Z" fill="white" stroke="#B2B1C0" stroke-width="1.33333"/>
<path id="Vector_7" d="M100 70.7031C100 73.9258 97.3633 76.5625 94.1406 76.5625L79.2969 82.4219V64.8438H94.1406C97.3633 64.8438 100 67.4805 100 70.7031Z" fill="#B2B1C0"/>
<path id="Vector_8" d="M94.1406 87.6146H94.0138L93.8958 87.6611L79.2985 93.4233L64.896 87.6623L64.7768 87.6146H64.6484C61.794 87.6146 59.4557 85.2763 59.4557 82.4219C59.4557 79.5674 61.794 77.2292 64.6484 77.2292H94.1406C96.9951 77.2292 99.3333 79.5674 99.3333 82.4219C99.3333 85.2763 96.9951 87.6146 94.1406 87.6146Z" fill="white" stroke="#B2B1C0" stroke-width="1.33333"/>
<path id="Vector_9" d="M100 82.4219C100 85.6445 97.3633 88.2812 94.1406 88.2812L79.2969 94.1406V76.5625H94.1406C97.3633 76.5625 100 79.1992 100 82.4219Z" fill="#B2B1C0"/>
<path id="Vector_10" d="M99.3333 94.1406C99.3333 96.9951 96.9951 99.3333 94.1406 99.3333H64.6484C61.794 99.3333 59.4557 96.9951 59.4557 94.1406C59.4557 91.2862 61.794 88.9479 64.6484 88.9479H94.1406C96.9951 88.9479 99.3333 91.2862 99.3333 94.1406Z" fill="white" stroke="#B2B1C0" stroke-width="1.33333"/>
<path id="Vector_11" d="M100 94.1406C100 97.3633 97.3633 100 94.1406 100H79.2969V88.2812H94.1406C97.3633 88.2812 100 90.918 100 94.1406Z" fill="#B2B1C0"/>
<path id="Vector_12" d="M65 31.5C65 35.625 61.5929 39 57.4286 39H19.5714C15.4071 39 12 35.625 12 31.5C12 27.375 15.4071 24 19.5714 24H57.4286C61.5929 24 65 27.375 65 31.5Z" fill="#F7B112"/>
<g id="Group">
<path id="Vector_13" d="M47.0116 74.5117C47.0116 78.3203 44.6098 81.4842 41.2109 82.7148V85.3516C41.2109 86.9926 39.9223 88.2812 38.2812 88.2812V77.4414C39.9223 77.3827 41.1522 76.0941 41.1522 74.5117C41.1522 72.8714 39.9223 71.6408 38.2812 71.582V65.7227C43.145 65.7814 47.0116 69.6487 47.0116 74.5117Z" fill="#17134C"/>
<path id="Vector_14" d="M47.0116 62.793C47.0116 64.3753 45.723 65.7227 44.0819 65.7227C42.4995 65.7227 41.1522 64.3753 41.1522 62.793C41.1522 61.1526 39.9223 59.922 38.2812 59.8633V47.2656C39.9223 47.2656 41.2109 48.5542 41.2109 50.1953V54.5311C44.6098 55.7617 47.0116 58.9844 47.0116 62.793Z" fill="#17134C"/>
</g>
</g>
<defs>
<clipPath id="clip0_105_6767">
<rect width="100" height="100" fill="white"/>
</clipPath>
</defs>
</svg>
