<svg width="100" height="100" viewBox="0 0 100 100" fill="none" xmlns="http://www.w3.org/2000/svg">
<rect opacity="0.15" x="100" y="100" width="100" height="100" rx="50" transform="rotate(180 100 100)" fill="#F7B112"/>
<path d="M52.3335 54.7754C51.8378 55.1404 51.1623 55.1404 50.6666 54.7754C49.4463 53.8774 47.6562 54.7137 47.6562 56.2143C47.6562 57.7559 49.9478 59.5095 51.4984 60.4045C53.0487 59.5062 55.3438 57.7478 55.3438 56.2143C55.3438 54.7118 53.5516 53.8789 52.3335 54.7754Z" fill="#F7B112"/>
<path d="M57.9072 45.325C60.2811 44.0897 61.9062 41.606 61.9062 38.75C61.9062 35.0738 59.5073 33.1902 57.1873 31.3687C55.5608 30.0917 53.879 28.7713 52.7262 26.7178C52.4773 26.2745 52.0085 26 51.5 26H41.75C40.9734 26 40.3438 26.6296 40.3438 27.4062C40.3438 29.3041 38.0938 32.5227 38.0938 36.5C38.0938 40.4627 40.3438 46.8084 40.3438 50.75C40.3438 53.0825 39.5789 54.4589 38.6106 56.2017C37.3779 58.4202 35.8438 61.181 35.8438 66.5V72.5938C35.8438 73.3704 36.4734 74 37.25 74H55.25C55.5425 74 55.8278 73.9088 56.066 73.739C56.3963 73.5037 64.1562 67.8728 64.1562 59C64.1562 53.2145 61.7491 48.4846 57.9072 45.325ZM52.1186 63.2629C51.7283 63.4541 51.2717 63.4541 50.8814 63.2629C50.2634 62.9602 44.8438 60.1908 44.8438 56.2143C44.8438 53.6665 46.9466 51.5938 49.5312 51.5938C50.2211 51.5938 50.8882 51.7392 51.5 52.0192C52.1118 51.7392 52.7789 51.5938 53.4688 51.5938C56.0534 51.5938 58.1562 53.6665 58.1562 56.2143C58.1562 60.1908 52.7366 62.9602 52.1186 63.2629Z" fill="#F7B112"/>
</svg>
