<svg width="100" height="100" viewBox="0 0 100 100" fill="none" xmlns="http://www.w3.org/2000/svg">
<rect opacity="0.15" x="100" y="100" width="100" height="100" rx="50" transform="rotate(180 100 100)" fill="#F7B112"/>
<g clip-path="url(#clip0_60_225)">
<path d="M37.3424 26C34.2398 26 31.7168 28.523 31.7168 31.6256C31.7168 34.7283 34.2398 37.3451 37.3424 37.3451C40.4451 37.3451 42.9681 34.7283 42.9681 31.6256C42.9681 28.523 40.4451 26 37.3424 26Z" fill="#F7B112"/>
<path d="M68.2825 31.6256C68.2825 28.523 65.7595 26 62.6569 26C59.5543 26 57.0312 28.523 57.0312 31.6256C57.0312 34.7283 59.5543 37.3451 62.6569 37.3451C65.7595 37.3451 68.2825 34.7283 68.2825 31.6256Z" fill="#F7B112"/>
<path d="M42.4238 68.6687C45.6975 71.4156 46.5034 72.1894 47.3796 72.9344C48.2146 73.6444 49.257 74.0001 50.2995 74.0001C51.3516 74.0001 52.4036 73.6376 53.2388 72.9151C54.7643 71.5944 56.4176 70.0705 57.9046 68.767C57.1064 68.4988 56.3546 68.0708 55.7275 67.443C54.0575 65.7751 53.5936 63.2483 54.6493 61.0369C51.7815 59.5187 48.224 59.5226 45.3547 61.0432C46.4052 63.2521 45.9422 65.7758 44.2716 67.4444C43.7298 67.9859 43.0994 68.3945 42.4238 68.6687Z" fill="#F7B112"/>
<path d="M50.0003 54.222C51.5538 54.222 52.8131 52.9626 52.8131 51.4091C52.8131 49.8557 51.5538 48.5963 50.0003 48.5963C48.4468 48.5963 47.1875 49.8557 47.1875 51.4091C47.1875 52.9626 48.4468 54.222 50.0003 54.222Z" fill="#F7B112"/>
<path d="M49.9998 44.0255C48.0742 40.5562 44.7505 37.5525 40.0368 37.5525C33.554 37.5525 28.666 42.8073 28.666 49.7747C28.666 55.9295 32.852 60.4423 39.4675 66.1514C40.4413 66.4441 41.5327 66.203 42.2838 65.454C43.4363 64.3044 43.343 62.4327 42.1698 61.3666C36.1321 55.881 34.2918 53.328 34.2918 50.4685H37.1046C37.1046 52.2404 38.8329 54.4808 43.5749 58.8327C47.4865 56.5373 52.5147 56.5423 56.4249 58.8329C61.1668 54.481 62.8953 52.2404 62.8953 50.4685H65.7081C65.7081 53.328 63.8677 55.881 57.83 61.3666C56.6635 62.4269 56.5581 64.2989 57.7147 65.4526C58.6631 66.3983 60.1394 66.505 61.2506 65.7823C68.2851 59.3735 71.3338 55.3977 71.3338 49.7747C71.3338 42.8071 66.4457 37.5524 59.9631 37.5524C55.2477 37.5525 51.9254 40.5562 49.9998 44.0255ZM55.6254 51.4092C55.6254 54.5118 53.1024 57.0348 49.9998 57.0348C46.8971 57.0348 44.3741 54.5118 44.3741 51.4092C44.3741 48.3065 46.8971 45.7835 49.9998 45.7835C53.1024 45.7835 55.6254 48.3065 55.6254 51.4092Z" fill="#F7B112"/>
</g>
<defs>
<clipPath id="clip0_60_225">
<rect width="48" height="48" fill="white" transform="translate(26 26)"/>
</clipPath>
</defs>
</svg>
