<svg width="100" height="100" viewBox="0 0 100 100" fill="none" xmlns="http://www.w3.org/2000/svg">
<rect opacity="0.15" x="100" y="100" width="100" height="100" rx="50" transform="rotate(180 100 100)" fill="#F7B112"/>
<path d="M37.3078 60.51C33.3072 60.6984 28.1011 62.6129 26.0126 70.6642C25.9931 70.7232 25.9963 70.7876 26.0217 70.8441C26.047 70.9007 26.0925 70.9452 26.1488 70.9685C26.1999 70.9989 26.2606 71.0077 26.318 70.9931C26.3753 70.9786 26.425 70.9417 26.4564 70.8903C29.1163 67.1996 33.7107 62.6928 40.4918 62.1779C45.7725 61.7772 46.7016 58.9275 47.8779 55.3199C48.9067 52.1645 50.0727 48.5883 54.3007 45.9586C54.608 45.7667 54.9559 45.6536 55.3147 45.6288C55.6736 45.604 56.0331 45.6682 56.3627 45.816C57.0856 46.1423 58.5052 46.6832 59.8822 46.6728C64.0393 46.6268 66.7126 43.0323 67.5911 41.8515C69.1116 39.8066 70.3039 37.0498 70.7795 34.4771C71.3037 31.6406 70.8862 29.396 69.6037 28.1566C68.7153 27.298 67.5349 27 66.326 27C65.2634 27.0227 64.2092 27.2003 63.1953 27.5275C60.5254 28.3469 57.9502 29.9176 56.4305 31.1144C54.9383 32.2894 50.975 35.4105 51.3656 39.5145C51.4145 40.0272 51.6319 40.7129 51.9946 41.4967C52.2247 42.0011 52.2718 42.5733 52.1272 43.1102C51.9826 43.647 51.656 44.1132 51.2061 44.4248C47.7707 46.7813 46.7769 49.8739 45.8157 52.8653C44.5999 56.6477 43.4516 60.2209 37.3078 60.51ZM62.6228 29.5062C62.7851 29.4412 62.9481 29.3784 63.1116 29.3177C63.267 29.26 63.4384 29.2681 63.5881 29.3401C63.7377 29.4121 63.8533 29.5422 63.9095 29.7017C63.9657 29.8612 63.9579 30.037 63.8877 30.1906C63.8175 30.3441 63.6908 30.4628 63.5353 30.5205C63.382 30.5773 63.229 30.6363 63.0766 30.6975C62.9226 30.7592 62.7511 30.7556 62.5997 30.6875C62.4484 30.6194 62.3295 30.4924 62.2694 30.3345C62.2093 30.1765 62.2128 30.0005 62.2791 29.8451C62.3455 29.6898 62.4692 29.5679 62.6232 29.5062H62.6228ZM55.224 34.2082C55.8824 33.6005 56.4801 33.1297 56.9166 32.7861C57.946 31.9867 59.0378 31.2755 60.1808 30.6599C60.3269 30.5805 60.4977 30.5639 60.6557 30.6138C60.8136 30.6637 60.9458 30.7759 61.0231 30.9258C61.1005 31.0757 61.1166 31.2509 61.068 31.413C61.0194 31.5751 60.91 31.7108 60.764 31.7901C59.6835 32.3734 58.6508 33.0455 57.6762 33.8C57.2552 34.1315 56.6798 34.5847 56.0575 35.159C55.9967 35.2152 55.9256 35.2585 55.8485 35.2865C55.7713 35.3145 55.6895 35.3266 55.6078 35.3222C55.5261 35.3178 55.446 35.2968 55.3722 35.2607C55.2983 35.2245 55.2322 35.1737 55.1774 35.1113C55.1227 35.0488 55.0805 34.976 55.0532 34.8968C55.0259 34.8176 55.0141 34.7337 55.0184 34.6498C55.0228 34.566 55.0431 34.4838 55.0784 34.408C55.1137 34.3323 55.1631 34.2644 55.224 34.2082Z" fill="#F7B112"/>
<path d="M35.587 43.0021C37.9683 42.8132 38.375 41.5283 38.9378 39.75C39.4411 38.1598 40.0116 36.3573 42.097 35.0168C42.2739 34.9016 42.4773 34.8333 42.6881 34.8183C42.8988 34.8033 43.1098 34.8422 43.3013 34.9312C43.6298 35.0843 44.2761 35.3385 44.8851 35.3316C46.7617 35.3083 47.9954 33.596 48.4008 33.0334C49.8582 31.011 50.6078 27.7179 49.3911 26.5028C48.1095 25.2237 45.0497 26.631 43.3854 27.9851C42.6928 28.5486 40.8529 30.0457 41.0293 31.9775C41.0771 32.2976 41.1732 32.6086 41.3143 32.9C41.4443 33.1873 41.471 33.5107 41.3899 33.8154C41.3088 34.1201 41.1249 34.3875 40.8692 34.5725C39.29 35.692 38.7966 37.0693 38.3193 38.4011C37.705 40.1154 37.0698 41.8882 33.9702 42.0418C31.5387 42.1633 29.9097 43.7857 29 47C30.3337 45.227 32.494 43.2474 35.587 43.0021Z" fill="#F7B112"/>
<path d="M58.4657 61.5836C56.816 62.6945 56.2837 64.0833 55.7687 65.4268C55.1061 67.1563 54.4209 68.9446 51.2162 69.0505C48.7016 69.1339 46.9921 70.754 46 74C47.4068 72.223 49.6707 70.2494 52.8705 70.0502C55.3337 69.8968 55.7748 68.5998 56.3853 66.8046C56.9311 65.1998 57.5499 63.38 59.7261 62.0534C59.9108 61.9393 60.1221 61.8732 60.34 61.8614C60.558 61.8496 60.7755 61.8924 60.9719 61.9859C61.3087 62.1462 61.9683 62.4154 62.6023 62.4175H62.6129C64.546 62.4175 65.8442 60.7057 66.2713 60.1424C67.8099 58.114 68.6383 54.785 67.401 53.5333C67.0287 53.1565 66.5027 53 65.9008 53C64.396 53 62.4161 53.9784 61.1723 54.9407C60.4475 55.5013 58.5223 56.9907 58.673 58.9532C58.7172 59.2787 58.8114 59.5957 58.9525 59.8936C59.0823 60.1871 59.1048 60.5157 59.0161 60.8236C58.9274 61.1315 58.7329 61.4 58.4657 61.5836Z" fill="#F7B112"/>
</svg>
