<svg width="100" height="100" viewBox="0 0 100 100" fill="none" xmlns="http://www.w3.org/2000/svg">
<rect opacity="0.15" x="100" y="100" width="100" height="100" rx="50" transform="rotate(180 100 100)" fill="#F7B112"/>
<g clip-path="url(#clip0_60_198)">
<path d="M42.7703 57.752L48.7429 57.4003C48.8656 57.3945 48.9818 57.3435 49.069 57.2571L57.1049 49.2204L50.7805 42.896L49.0789 44.5975L50.586 46.1045C50.8011 46.3123 50.8874 46.62 50.8117 46.9094C50.7359 47.1987 50.51 47.4247 50.2206 47.5004C49.9313 47.5762 49.6236 47.4899 49.4158 47.2748L47.9087 45.7677L46.5962 47.0803L48.1032 48.5873C48.3184 48.7951 48.4046 49.1028 48.3289 49.3921C48.2532 49.6815 48.0272 49.9075 47.7378 49.9832C47.4485 50.0589 47.1408 49.9727 46.933 49.7575L45.426 48.2505L44.1134 49.563L45.6205 51.0701C45.8356 51.2778 45.9219 51.5855 45.8461 51.8749C45.7704 52.1642 45.5444 52.3902 45.2551 52.466C44.9657 52.5417 44.658 52.4554 44.4503 52.2403L42.9432 50.7332L42.7446 50.931C42.6579 51.0182 42.6066 51.1343 42.6006 51.2571L42.2489 57.2298C42.2407 57.3705 42.2935 57.508 42.3937 57.6072C42.4931 57.7066 42.6299 57.7592 42.7703 57.752Z" fill="#F7B112"/>
<path d="M43.7931 74C55.4753 74 61.5862 71.5751 61.5862 70.2758V65.1589C61.3452 65.3095 61.0966 65.4476 60.8414 65.5727C60.763 65.6275 60.6756 65.6681 60.5832 65.6927C56.6927 67.4943 49.2999 68.2069 43.7931 68.2069C40.6603 68.2156 37.5306 68.0109 34.4257 67.5945C31.8333 67.2991 29.2948 66.6442 26.883 65.6488C26.8408 65.6325 26.7999 65.6132 26.7606 65.5909C26.5001 65.4636 26.2463 65.3233 26 65.1705V70.2758C26 71.5751 32.1109 74 43.7931 74Z" fill="#F7B112"/>
<path d="M27.2414 63.9763C28.8816 63.3128 30.5894 62.8305 32.3343 62.5379C32.6259 62.4816 32.9252 62.5858 33.1188 62.8109C33.3123 63.036 33.3705 63.3476 33.2712 63.6274C33.1718 63.9072 32.9303 64.1123 32.6381 64.165C31.6018 64.3539 30.5763 64.5981 29.5661 64.8966C31.2322 65.3812 32.9337 65.7351 34.6549 65.955C37.6839 66.3614 40.737 66.5607 43.7931 66.5517C50.312 66.5517 55.0921 65.7962 58.0474 64.9032C54.6428 63.8737 49.3661 63.2414 43.7931 63.2414C43.2767 63.2414 42.7677 63.2497 42.2679 63.2579H42.2538C41.9581 63.2603 41.6837 63.1048 41.5338 62.8499C41.3839 62.595 41.3814 62.2795 41.5272 62.0223C41.6729 61.7651 41.9449 61.6051 42.2406 61.6028C42.7495 61.5945 43.2668 61.5862 43.7931 61.5862C50.6943 61.5862 56.9774 62.5048 60.3771 63.9928C61.1724 63.5724 61.5862 63.1586 61.5862 62.8276C61.5862 61.7079 56.6099 59.533 46.6971 59.1788L42.867 59.4039C42.8248 59.4039 42.7843 59.408 42.7404 59.408C42.4602 59.4067 42.183 59.3504 41.9244 59.2425L36.5161 64.6508C36.1914 64.9644 35.6752 64.9599 35.356 64.6407C35.0368 64.3215 35.0323 63.8053 35.3459 63.4806L39.6105 59.216C30.5352 59.744 26 61.7443 26 62.8276C26 63.0858 26.3658 63.507 27.2414 63.9763Z" fill="#F7B112"/>
<path d="M67.3802 26C64.8527 25.9976 62.5448 27.4359 61.4335 29.706C60.3222 31.9761 60.6018 34.6811 62.154 36.6759L59.1043 39.7297L57.4202 38.0455C58.9313 36.0178 58.8508 33.2174 57.2257 31.2799C55.6006 29.3423 52.857 28.7756 50.5972 29.9106C48.3374 31.0456 47.1539 33.5849 47.7378 36.0454C48.3217 38.5059 50.5201 40.2425 53.0489 40.2411C53.1863 40.2411 53.3228 40.2303 53.4586 40.2204L51.9507 41.7241L54.5278 44.3012L56.7672 42.0618L54.6908 39.9862C55.248 39.8096 55.7729 39.5438 56.245 39.1992L58.5068 41.4601C58.5126 41.4668 58.5143 41.475 58.5201 41.4808C58.5259 41.4866 58.5341 41.4883 58.5408 41.4941L60.8017 43.7559C60.4571 44.228 60.1913 44.7529 60.0147 45.3101L57.9374 43.2337L55.698 45.4731L58.2768 48.0502L59.7821 46.5457C59.7722 46.6814 59.7614 46.8179 59.7614 46.9595C59.7539 49.503 61.4969 51.7177 63.9711 52.3081C66.4452 52.8984 69.0004 51.7093 70.1421 49.4363C71.2837 47.1633 70.7119 44.4036 68.7611 42.7714C66.8102 41.1392 63.9929 41.0633 61.957 42.5881L60.2712 40.8966L63.325 37.8469C65.3203 39.397 68.0242 39.6755 70.2935 38.5646C72.5628 37.4537 74.0014 35.1473 74.0009 32.6207C74.0009 28.9642 71.0367 26 67.3802 26ZM55.7394 37.4695C54.252 38.9543 51.8428 38.9529 50.3572 37.4664C48.8715 35.9799 48.8715 33.5707 50.3572 32.0842C51.8428 30.5977 54.252 30.5963 55.7394 32.0811C56.4605 32.7922 56.8665 33.7626 56.8665 34.7753C56.8665 35.788 56.4605 36.7585 55.7394 37.4695ZM62.5314 44.2615C63.8161 42.9781 65.8285 42.7808 67.338 43.7902C68.8475 44.7997 69.4339 46.7347 68.7387 48.4123C68.0434 50.0899 66.2601 51.0429 64.4791 50.6885C62.698 50.3342 61.4152 48.7713 61.415 46.9553C61.4138 45.9446 61.8156 44.9751 62.5314 44.2615ZM70.89 36.1321C69.2143 37.8065 66.5893 38.0641 64.6201 36.7474C62.6509 35.4306 61.8861 32.9063 62.7932 30.718C63.7004 28.5298 66.027 27.287 68.3502 27.7498C70.6734 28.2125 72.3462 30.2519 72.3457 32.6207C72.3493 33.9384 71.8257 35.2027 70.8917 36.1321H70.89Z" fill="#F7B112"/>
</g>
<defs>
<clipPath id="clip0_60_198">
<rect width="48" height="48" fill="white" transform="translate(26 26)"/>
</clipPath>
</defs>
</svg>
